<?xml version="1.0" encoding="UTF-8"?>
<svg version="1.1" xmlns="http://www.w3.org/2000/svg" width="1280" height="720">
<path d="M0 0 C12.87 0 25.74 0 39 0 C42.04468612 6.69830946 45.00675193 13.30910073 47.6796875 20.14453125 C48.00934006 20.98053864 48.33899261 21.81654602 48.67863464 22.67788696 C49.74674415 25.38838826 50.81087309 28.10043301 51.875 30.8125 C52.62528138 32.71829386 53.37585551 34.62397248 54.12670898 36.52954102 C55.66483151 40.43417604 57.2014733 44.33938845 58.73681641 48.24511719 C61.85465271 56.17546509 64.98254354 64.1018411 68.11135864 72.02786255 C69.05228435 74.4116195 69.99283172 76.79552548 70.93334961 79.17944336 C75.25596307 90.13289862 79.60968515 101.07349036 84 112 C90.43047752 97.4666079 96.55103427 82.84028207 102.39047241 68.06002808 C109.15561615 50.9487448 116.04095315 33.89319926 123.1875 16.9375 C123.53137756 16.11941864 123.87525513 15.30133728 124.22955322 14.45846558 C125.18488661 12.1883427 126.14412906 9.91992867 127.10546875 7.65234375 C127.52742271 6.65146729 127.52742271 6.65146729 127.957901 5.63037109 C129.88323857 1.11676143 129.88323857 1.11676143 131 0 C143.21 0 155.42 0 168 0 C168 51.15 168 102.3 168 155 C165.41276011 156.29361994 163.51886997 156.12948949 160.625 156.1328125 C159.55765625 156.13410156 158.4903125 156.13539063 157.390625 156.13671875 C156.27171875 156.13285156 155.1528125 156.12898437 154 156.125 C152.88109375 156.12886719 151.7621875 156.13273438 150.609375 156.13671875 C149.00835938 156.13478516 149.00835938 156.13478516 147.375 156.1328125 C146.39273438 156.13168457 145.41046875 156.13055664 144.3984375 156.12939453 C142 156 142 156 140 155 C139.67 117.71 139.34 80.42 139 42 C126.65074371 73.23456493 126.65074371 73.23456493 114.3203125 104.4765625 C110.69921875 113.61328125 110.69921875 113.61328125 108.91943359 118.09619141 C107.69266215 121.18848181 106.47195455 124.28308215 105.25537109 127.37939453 C103.74125125 131.23242314 102.21643344 135.08104934 100.68377304 138.92673874 C100.11292432 140.3645524 99.545951 141.80391139 98.98306656 143.2448616 C98.21270112 145.2152031 97.42875059 147.1795784 96.64111328 149.14306641 C96.20163361 150.25469147 95.76215393 151.36631653 95.30935669 152.5116272 C94 155 94 155 91 156 C88.33452249 156.22521147 85.73135045 156.36821024 83.0625 156.4375 C82.34642578 156.48326172 81.63035156 156.52902344 80.89257812 156.57617188 C78.78515625 156.62109375 78.78515625 156.62109375 75 156 C71.38888988 151.52123988 69.41145055 146.5489543 67.33984375 141.22265625 C66.99742645 140.35956345 66.65500916 139.49647064 66.30221558 138.60722351 C65.5618517 136.73890277 64.82463493 134.86933247 64.09024048 132.99865723 C62.51733453 128.99229219 60.92925375 124.99199785 59.34214783 120.99124146 C58.5084043 118.88907522 57.67545975 116.78659195 56.84327698 114.68380737 C52.62468758 104.02906175 48.33862237 93.40195286 44.03884888 82.77975464 C42.84444742 79.82892766 41.65146838 76.87752905 40.45874023 73.92602539 C39.70825897 72.07043951 38.95769334 70.21488774 38.20703125 68.359375 C37.72349686 67.16304695 37.72349686 67.16304695 37.23019409 65.94255066 C33.85656224 57.61300461 30.42193977 49.31042516 27 41 C26.67 78.62 26.34 116.24 26 155 C23.45724451 156.27137774 21.65191799 156.129425 18.80859375 156.1328125 C17.78185547 156.13410156 16.75511719 156.13539063 15.69726562 156.13671875 C14.62154297 156.13285156 13.54582031 156.12898437 12.4375 156.125 C11.35791016 156.12886719 10.27832031 156.13273438 9.16601562 156.13671875 C7.6278418 156.13478516 7.6278418 156.13478516 6.05859375 156.1328125 C5.11298584 156.13168457 4.16737793 156.13055664 3.19311523 156.12939453 C1 156 1 156 0 155 C-0.09672695 153.00038545 -0.1218703 150.99729807 -0.12025452 148.99534607 C-0.12162918 147.68977753 -0.12300385 146.38420898 -0.12442017 145.03907776 C-0.12088055 143.57870461 -0.11724573 142.11833169 -0.11352539 140.65795898 C-0.11324353 139.13073732 -0.11340123 137.60351553 -0.1139679 136.07629395 C-0.11425591 131.91738312 -0.10835855 127.75850089 -0.10139394 123.59959674 C-0.09516106 119.25805476 -0.09455665 114.91651219 -0.09336853 110.57496643 C-0.09025502 102.34786418 -0.08204137 94.12077514 -0.07201904 85.89367872 C-0.06085851 76.52986936 -0.05534761 67.16605938 -0.05032361 57.80224502 C-0.03985877 38.53482099 -0.02151305 19.26741508 0 0 Z M140 37 C141 39 141 39 141 39 Z " fill="#767676" transform="translate(371,281)"/>
<path d="M0 0 C40.59 0 81.18 0 123 0 C123 40.59 123 81.18 123 123 C82.41 123 41.82 123 0 123 C0 82.41 0 41.82 0 0 Z " fill="#FFBA07" transform="translate(172,365)"/>
<path d="M0 0 C40.59 0 81.18 0 123 0 C123 40.59 123 81.18 123 123 C82.41 123 41.82 123 0 123 C0 82.41 0 41.82 0 0 Z " fill="#05A5EF" transform="translate(37,365)"/>
<path d="M0 0 C40.59 0 81.18 0 123 0 C123 40.26 123 80.52 123 122 C82.41 122 41.82 122 0 122 C0 81.74 0 41.48 0 0 Z " fill="#81BB05" transform="translate(172,231)"/>
<path d="M0 0 C40.59 0 81.18 0 123 0 C123 40.26 123 80.52 123 122 C82.41 122 41.82 122 0 122 C0 81.74 0 41.48 0 0 Z " fill="#F35225" transform="translate(37,231)"/>
<path d="M0 0 C0 7.92 0 15.84 0 24 C-2.31 23.34 -4.62 22.68 -7 22 C-11.90180326 21.4940498 -16.41338648 21.33891103 -21 23.25 C-24.59875272 26.39890863 -26.7445977 29.29261417 -27.20532227 34.17651367 C-27.24197998 34.99869385 -27.2786377 35.82087402 -27.31640625 36.66796875 C-27.37356812 37.8748938 -27.37356812 37.8748938 -27.43188477 39.10620117 C-27.47498779 40.12302979 -27.51809082 41.1398584 -27.5625 42.1875 C-27.706875 45.425625 -27.85125 48.66375 -28 52 C-9.685 52.495 -9.685 52.495 9 53 C9 44.75 9 36.5 9 28 C13.29063831 26.66327819 17.58242448 25.33047367 21.875 24 C23.09832031 23.6184375 24.32164063 23.236875 25.58203125 22.84375 C26.74863281 22.4828125 27.91523437 22.121875 29.1171875 21.75 C30.19597168 21.41484375 31.27475586 21.0796875 32.38623047 20.734375 C35 20 35 20 37 20 C37 30.89 37 41.78 37 53 C45.58 53 54.16 53 63 53 C63 60.26 63 67.52 63 75 C54.42 75 45.84 75 37 75 C37.0676563 82.71281872 37.1380958 90.42471569 37.2355423 98.1370697 C37.28012123 101.72889054 37.31957295 105.32059692 37.34643555 108.91259766 C37.37253144 112.37523752 37.41297699 115.83744493 37.46318626 119.29981613 C37.48787932 121.25720168 37.49788361 123.21475477 37.50764465 125.17227173 C37.52743881 126.37306366 37.54723297 127.57385559 37.56762695 128.81103516 C37.57873001 129.86360504 37.58983307 130.91617493 37.60127258 132.00064087 C38.07291623 135.54849995 39.14922704 137.94800444 41 141 C44.41665007 143.27776671 45.73367044 143.27038746 49.75 143.25 C51.25820312 143.25773437 51.25820312 143.25773437 52.796875 143.265625 C56.69412549 143.04688923 56.69412549 143.04688923 63 141 C63 148.26 63 155.52 63 163 C51.83558133 167.78475086 38.91646989 169.21570353 27.2109375 165.03515625 C18.87566764 161.13260058 14.2414829 155.37955897 10.75 147 C8.67267505 138.69070022 8.86836206 130.38812521 8.90234375 121.875 C8.9042122 120.51879936 8.90563408 119.16259804 8.90663147 117.80639648 C8.91042304 114.26204517 8.92022405 110.71773579 8.93133545 107.17340088 C8.94162238 103.54659604 8.94619965 99.91978413 8.95117188 96.29296875 C8.96131723 89.19527565 8.98089735 82.09769721 9 75 C-3.21 75.33 -15.42 75.66 -28 76 C-28 105.04 -28 134.08 -28 164 C-31.09764653 165.03254884 -33.26148787 165.12908904 -36.5078125 165.1328125 C-37.57644531 165.13410156 -38.64507813 165.13539063 -39.74609375 165.13671875 C-40.86113281 165.13285156 -41.97617188 165.12898437 -43.125 165.125 C-44.24777344 165.12886719 -45.37054687 165.13273438 -46.52734375 165.13671875 C-48.12642578 165.13478516 -48.12642578 165.13478516 -49.7578125 165.1328125 C-50.7389502 165.13168457 -51.72008789 165.13055664 -52.73095703 165.12939453 C-55 165 -55 165 -56 164 C-56.09517803 161.23061034 -56.12554265 158.48622841 -56.11352539 155.71655273 C-56.11367142 154.84833893 -56.11381744 153.98012512 -56.1139679 153.08560181 C-56.11326846 150.20157414 -56.10547463 147.3176102 -56.09765625 144.43359375 C-56.09579218 142.43962133 -56.09436823 140.44564845 -56.09336853 138.45167542 C-56.08954248 133.19254298 -56.07971145 127.93343797 -56.06866455 122.67431641 C-56.0584523 117.31217825 -56.05387131 111.95003569 -56.04882812 106.58789062 C-56.03808926 96.05857973 -56.02049176 85.52929643 -56 75 C-61.94 75 -67.88 75 -74 75 C-74 67.74 -74 60.48 -74 53 C-68.06 53 -62.12 53 -56 53 C-56.05220703 50.91751953 -56.05220703 50.91751953 -56.10546875 48.79296875 C-56.3721845 33.8851749 -55.87090794 20.91454417 -45.40625 9.21875 C-32.42979205 -2.77835263 -16.45963393 -3.65769643 0 0 Z " fill="#767676" transform="translate(1180,272)"/>
<path d="M0 0 C16.62945362 -0.49000232 31.34813465 4.15358517 43.93359375 15.125 C53.24889381 24.93369519 58.09753704 38.77342776 58.93359375 52.125 C58.98644531 52.89714844 59.03929687 53.66929687 59.09375 54.46484375 C59.66882191 71.09192291 55.53587613 86.73521593 44.62109375 99.5625 C33.13757005 111.41583209 19.59703744 116.92056555 3.26708984 117.46142578 C-10.58083765 117.6787021 -23.73442735 115.66360648 -35.06640625 107.125 C-35.845 106.53847656 -36.62359375 105.95195312 -37.42578125 105.34765625 C-48.31446157 96.4138229 -54.29024056 84.00233195 -56.06640625 70.125 C-57.25681117 51.5021897 -55.41442251 33.51508151 -42.75390625 18.875 C-30.86439168 6.31620812 -17.11655235 1.03540581 0 0 Z M-21.06640625 33.125 C-28.10988392 43.02394159 -29.38188239 55.28279798 -28.06640625 67.125 C-25.9900023 77.21951768 -22.65028014 85.01724358 -14.06640625 91.125 C-6.09837144 95.4041298 3.98380469 95.44995303 12.72265625 93.50390625 C19.70142357 90.80592919 24.74321416 85.18723005 27.80859375 78.4375 C31.73529191 66.87555542 32.43311112 49.46715859 27.2578125 38.28125 C22.67362094 30.81672569 17.44446185 26.06912695 8.984375 23.54296875 C-2.59709447 21.18255497 -13.19858539 24.36269371 -21.06640625 33.125 Z " fill="#767676" transform="translate(835.06640625,321.875)"/>
<path d="M0 0 C16.31316366 -0.52907558 31.60229938 4.20450263 43.60546875 15.3671875 C57.28501125 29.80670458 58.54466291 47.55804925 58.04541016 66.39794922 C57.38633384 80.46076916 51.03170821 92.81695314 41.359375 102.8984375 C27.24408293 115.72641493 10.57611971 117.80285117 -7.70019531 117.24902344 C-21.87858881 116.46424151 -34.54767513 109.38364597 -44.08203125 99.1171875 C-56.46906914 83.66008633 -57.35866963 66.22527251 -56.08203125 47.1171875 C-54.25786142 33.09972866 -46.61487328 20.02141205 -35.6875 11.1796875 C-25.14112189 3.84307664 -12.68132254 0.7137705 0 0 Z M-21.08203125 32.1171875 C-29.06722544 43.06136227 -29.13059922 56.11601741 -28.08203125 69.1171875 C-26.43396487 78.43320344 -22.46716087 84.97711604 -15.00390625 90.71484375 C-7.48819963 95.30351497 1.39570421 95.38320686 9.91796875 94.1171875 C16.52354366 92.17823765 21.12106192 88.92422147 24.91796875 83.1171875 C31.39043219 70.87674644 31.99992181 55.2303837 28.35546875 41.9296875 C25.69848726 34.60201224 21.71605992 29.3632945 14.79296875 25.6796875 C2.49493408 20.35210378 -11.53461736 22.52808184 -21.08203125 32.1171875 Z " fill="#767676" transform="translate(1046.08203125,321.8828125)"/>
<path d="M0 0 C1 1 1 1 1.11352539 3.31665039 C1.10567017 4.81699829 1.10567017 4.81699829 1.09765625 6.34765625 C1.09282227 7.96704102 1.09282227 7.96704102 1.08789062 9.61914062 C1.07532227 11.32360352 1.07532227 11.32360352 1.0625 13.0625 C1.05798828 14.20267578 1.05347656 15.34285156 1.04882812 16.51757812 C1.03699747 19.34510351 1.0205141 22.1725264 1 25 C-1.94722283 24.30172071 -4.4572843 23.38036368 -7.1875 22.0625 C-15.40919103 18.36206623 -25.11181124 15.94732936 -33.875 19.1875 C-37.3399336 21.19716149 -38.63521361 22.24683742 -40 26 C-40 29.99450705 -39.61664109 32.19625841 -37.171875 35.3828125 C-32.25993935 40.04457066 -25.21148539 42.12038057 -19.078125 44.71875 C-10.49854704 48.47231536 -2.11842677 52.71128074 2.5 61.25 C3.19609375 62.49523437 3.19609375 62.49523437 3.90625 63.765625 C7.38958705 70.88158497 6.92279029 80.27381727 5.421875 87.9609375 C2.27506509 97.02947151 -4.63836892 103.02625015 -12.9375 107.4375 C-29.23623895 114.81999029 -47.26292139 113.15276353 -64 108 C-65.32 107.34 -66.64 106.68 -68 106 C-68 97.42 -68 88.84 -68 80 C-63.54655055 81.78137978 -59.24681255 83.73349493 -54.9140625 85.78125 C-48.89520157 88.2985216 -43.43909832 89.32423328 -36.9375 89.25 C-36.25623047 89.25773437 -35.57496094 89.26546875 -34.87304688 89.2734375 C-30.55340961 89.25683947 -26.97931899 88.69500763 -23 87 C-21.96442703 85.28619384 -21.96442703 85.28619384 -22 83 C-21.896875 81.865625 -21.79375 80.73125 -21.6875 79.5625 C-22.06518316 75.256912 -23.05302037 74.08952608 -26 71 C-28.78305461 69.30661682 -28.78305461 69.30661682 -31.9453125 67.984375 C-33.10546875 67.45457031 -34.265625 66.92476563 -35.4609375 66.37890625 C-37.87659596 65.30018757 -40.29738209 64.23389701 -42.71875 63.16796875 C-53.53879179 58.21176859 -62.49553915 52.35907519 -67 41 C-69.66732807 32.9980158 -68.92315877 22.78498167 -65.31640625 15.20703125 C-59.37201221 5.24091068 -50.4924635 -0.56504424 -39.34375 -3.47265625 C-26.11069994 -6.45009251 -12.58356282 -4.95903953 0 0 Z " fill="#767676" transform="translate(973,327)"/>
<path d="M0 0 C0 8.58 0 17.16 0 26 C-3.43503813 25.14124047 -5.6876724 24.20581911 -8.75 22.5625 C-18.04523209 17.86052587 -27.06007493 16.45006563 -37.25 19.25 C-41.39121508 20.61523574 -44.49627966 22.43630219 -48 25 C-48.99 25.33 -49.98 25.66 -51 26 C-52.12095027 27.84544344 -52.12095027 27.84544344 -53 30 C-53.33 30.61359375 -53.66 31.2271875 -54 31.859375 C-59.65115846 42.54359647 -61.01745365 54.65565335 -57.8125 66.4375 C-54.65803689 75.20312791 -50.37965229 80.67945678 -42 85 C-32.32066915 88.93644096 -20.85969439 88.16899764 -11.34375 84.15625 C-8.13586167 82.57369176 -5.07272199 80.83055778 -2 79 C-1.34 79 -0.68 79 0 79 C0 86.92 0 94.84 0 103 C-15.97819921 110.98909961 -33.66154377 114.31191423 -51.234375 109.03515625 C-65.69625707 103.62216367 -75.55864987 95.65369899 -83 82 C-90.04197671 65.00563424 -90.10772891 46.29571832 -84 29 C-78.04258204 14.71306149 -66.94913678 4.11529497 -52.75 -1.8125 C-36.19879997 -7.67801299 -15.96492588 -7.98246294 0 0 Z " fill="#767676" transform="translate(695,328)"/>
<path d="M0 0 C0.33 8.91 0.66 17.82 1 27 C-2.63 26.01 -6.26 25.02 -10 24 C-17.13727484 23.39806116 -22.07392985 23.82418778 -28 28 C-34.36084093 34.00746088 -36.72180666 43.59276292 -37.15821838 52.07528687 C-37.17376266 53.16338654 -37.18930695 54.25148621 -37.20532227 55.37255859 C-37.22526749 56.61339203 -37.24521271 57.85422546 -37.26576233 59.13265991 C-37.28274121 60.47125121 -37.29962021 61.80984377 -37.31640625 63.1484375 C-37.33700178 64.52992335 -37.3579989 65.91140327 -37.37937927 67.2928772 C-37.43433178 70.91281298 -37.48385824 74.53280308 -37.53222656 78.15283203 C-37.58263861 81.85323875 -37.63822138 85.55356747 -37.69335938 89.25390625 C-37.80061241 96.50253795 -37.902129 103.75123491 -38 111 C-40.59553834 112.29776917 -42.50705527 112.12950035 -45.41015625 112.1328125 C-47.01793945 112.13474609 -47.01793945 112.13474609 -48.65820312 112.13671875 C-49.78162109 112.13285156 -50.90503906 112.12898438 -52.0625 112.125 C-53.75342773 112.13080078 -53.75342773 112.13080078 -55.47851562 112.13671875 C-56.54908203 112.13542969 -57.61964844 112.13414062 -58.72265625 112.1328125 C-59.71015869 112.13168457 -60.69766113 112.13055664 -61.71508789 112.12939453 C-64 112 -64 112 -65 111 C-65.09558036 109.55786001 -65.12188394 108.11105921 -65.12025452 106.66575623 C-65.12162918 105.73041046 -65.12300385 104.7950647 -65.12442017 103.83137512 C-65.12082489 102.79703842 -65.11722961 101.76270172 -65.11352539 100.69702148 C-65.11367142 99.61422913 -65.11381744 98.53143677 -65.1139679 97.41583252 C-65.11326823 93.81756626 -65.10547333 90.21935103 -65.09765625 86.62109375 C-65.09579226 84.13387582 -65.09436827 81.64665752 -65.09336853 79.15943909 C-65.0899335 73.26978809 -65.08204277 67.3801561 -65.07201904 61.49051291 C-65.05976246 54.12974626 -65.05437791 46.76897736 -65.04882812 39.40820312 C-65.03808815 26.27212419 -65.02049013 13.13606735 -65 0 C-56.09 0 -47.18 0 -38 0 C-37.67 4.95 -37.34 9.9 -37 15 C-36.195625 13.63875 -35.39125 12.2775 -34.5625 10.875 C-30.55119705 4.85330409 -25.56027742 1.70274137 -19.125 -1.375 C-12.26152735 -2.74769453 -6.50838865 -2.60335546 0 0 Z " fill="#767676" transform="translate(778,325)"/>
<path d="M0 0 C8.91 0 17.82 0 27 0 C27 36.63 27 73.26 27 111 C24.40446166 112.29776917 22.49294473 112.12950035 19.58984375 112.1328125 C17.98206055 112.13474609 17.98206055 112.13474609 16.34179688 112.13671875 C15.21837891 112.13285156 14.09496094 112.12898438 12.9375 112.125 C11.24657227 112.13080078 11.24657227 112.13080078 9.52148438 112.13671875 C8.45091797 112.13542969 7.38035156 112.13414062 6.27734375 112.1328125 C5.28984131 112.13168457 4.30233887 112.13055664 3.28491211 112.12939453 C1 112 1 112 0 111 C-0.09558036 109.55786001 -0.12188394 108.11105921 -0.12025452 106.66575623 C-0.12162918 105.73041046 -0.12300385 104.7950647 -0.12442017 103.83137512 C-0.12082489 102.79703842 -0.11722961 101.76270172 -0.11352539 100.69702148 C-0.11367142 99.61422913 -0.11381744 98.53143677 -0.1139679 97.41583252 C-0.11326823 93.81756626 -0.10547333 90.21935103 -0.09765625 86.62109375 C-0.09579226 84.13387582 -0.09436827 81.64665752 -0.09336853 79.15943909 C-0.0899335 73.26978809 -0.08204277 67.3801561 -0.07201904 61.49051291 C-0.05976246 54.12974626 -0.05437791 46.76897736 -0.04882812 39.40820312 C-0.03808815 26.27212419 -0.02049013 13.13606735 0 0 Z " fill="#777777" transform="translate(563,325)"/>
<path d="M0 0 C3.88446678 2.58964452 6.69907021 5.64814041 8.8125 9.875 C9.46141795 14.94583027 9.5950076 19.45123861 6.6875 23.8125 C3.50806363 27.56760034 0.40439116 29.57479727 -4.58203125 30.15234375 C-9.84517452 30.34961299 -13.73965335 29.94613221 -18.1875 26.875 C-22.0540726 23.11583219 -23.66134181 19.16693723 -24.1875 13.875 C-23.53876095 7.71197903 -20.70625221 5.04764203 -16.16015625 1.2578125 C-11.22644904 -2.20066741 -5.45242491 -1.92438526 0 0 Z " fill="#767676" transform="translate(584.1875,279.125)"/>
</svg>
